<?xml version="1.0" encoding="UTF-8" standalone="no"?>
<svg
   viewBox="0 0 138.87628 47.519113"
   version="1.1"
   id="svg32"
   sodipodi:docname="navbar-logo.svg"
   inkscape:version="1.1.2 (b8e25be833, 2022-02-05)"
   width="138.87628"
   height="47.519115"
   xmlns:inkscape="http://www.inkscape.org/namespaces/inkscape"
   xmlns:sodipodi="http://sodipodi.sourceforge.net/DTD/sodipodi-0.dtd"
   xmlns="http://www.w3.org/2000/svg"
   xmlns:svg="http://www.w3.org/2000/svg">
  <defs
     id="defs36" />
  <sodipodi:namedview
     id="namedview34"
     pagecolor="#ffffff"
     bordercolor="#666666"
     borderopacity="1.0"
     inkscape:pageshadow="2"
     inkscape:pageopacity="0.0"
     inkscape:pagecheckerboard="0"
     showgrid="false"
     inkscape:zoom="4.8193824"
     inkscape:cx="89.119302"
     inkscape:cy="14.109692"
     inkscape:window-width="1280"
     inkscape:window-height="961"
     inkscape:window-x="-8"
     inkscape:window-y="32"
     inkscape:window-maximized="1"
     inkscape:current-layer="svg32" />
  <style
     id="style2">.cls-1{fill:#fed136;}</style>
  <g
     aria-label="PDF"
     transform="matrix(0.96670277,0,0,1.1424255,-0.62143918,-1.1391036)"
     id="text1017"
     style="font-size:39.4205px;line-height:1.25;fill:#ffffff;stroke-width:0.985504">
    <path
       d="m 24.298995,10.043789 q 0,1.92483 -0.67369,3.772666 -0.673691,1.828587 -1.92483,3.079726 -1.713098,1.69385 -3.83041,2.560023 -2.098063,0.866173 -5.235535,0.866173 H 8.0341882 v 9.335422 H 0.64284411 V 0.9970922 H 12.807765 q 2.733257,0 4.600341,0.4812073 1.886333,0.461959 3.329955,1.4051253 1.732346,1.1356492 2.637016,2.9064921 0.923918,1.7708428 0.923918,4.2538721 z m -7.641572,0.173235 q 0,-1.2126424 -0.654442,-2.0788155 Q 15.348539,7.2527871 14.482366,6.9063178 13.327468,6.4443588 12.230316,6.4058622 11.133163,6.3481173 9.3045754,6.3481173 H 8.0341882 V 14.932856 H 10.1515 q 1.886333,0 3.098975,-0.23098 1.231891,-0.23098 2.059568,-0.923918 0.712186,-0.615945 1.020159,-1.46287 0.327221,-0.866173 0.327221,-2.098064 z"
       style="font-weight:bold;-inkscape-font-specification:'sans-serif Bold';fill:#ffffff"
       id="path11" />
    <path
       d="m 56.616876,15.356318 q 0,4.003645 -1.828587,7.179613 -1.828588,3.15672 -4.619591,4.850569 -2.098063,1.270388 -4.600341,1.770843 -2.502278,0.500456 -5.928474,0.500456 H 29.53453 V 0.9970922 h 10.394077 q 3.503189,0 6.043964,0.596697 2.540774,0.5774488 4.273121,1.6553531 2.964237,1.8093395 4.658086,4.8890662 1.713098,3.0604785 1.713098,7.2181095 z m -7.641572,-0.05775 q 0,-2.829499 -1.039407,-4.831321 Q 46.915737,8.4461811 44.682935,7.3105319 43.547286,6.7523315 42.353892,6.5598485 41.179746,6.3481173 38.792958,6.3481173 H 36.925874 V 24.287525 h 1.867084 q 2.637016,0 3.868907,-0.230979 1.23189,-0.250228 2.406036,-0.885422 2.021071,-1.154897 2.964237,-3.079726 0.943166,-1.944078 0.943166,-4.792825 z"
       style="font-weight:bold;-inkscape-font-specification:'sans-serif Bold';fill:#ffffff"
       id="path13" />
    <path
       d="M 82.794552,6.5406003 H 69.609473 v 5.3317767 h 12.222665 v 5.543508 H 69.609473 V 29.657799 H 62.256625 V 0.9970922 h 20.537927 z"
       style="font-weight:bold;-inkscape-font-specification:'sans-serif Bold';fill:#ffffff"
       id="path15" />
  </g>
  <g
     aria-label="Cópias &amp; Impressão"
     id="text7543"
     style="font-size:13.0972px;line-height:1.25;fill:#ffffff;stroke-width:0.982295"
     transform="matrix(0.94923908,0,0,0.94923908,-77.4185,17.051315)">
    <path
       d="m 86.420415,29.647746 q -1.06159,0 -1.963302,-0.31336 -0.895316,-0.313361 -1.541223,-0.933688 -0.645907,-0.620326 -1.004033,-1.547618 -0.351732,-0.927292 -0.351732,-2.142364 0,-1.131936 0.338942,-2.052833 0.338941,-0.920897 0.984848,-1.579594 0.620326,-0.633117 1.534828,-0.978453 0.920897,-0.345336 2.008067,-0.345336 0.601141,0 1.080774,0.07035 0.486029,0.06395 0.895317,0.172668 0.428473,0.121507 0.773809,0.27499 0.351732,0.147088 0.613931,0.27499 v 2.308638 h -0.281385 q -0.179063,-0.153483 -0.454053,-0.364522 -0.268595,-0.211039 -0.613931,-0.415683 -0.351732,-0.204643 -0.761019,-0.345336 -0.409288,-0.140693 -0.876131,-0.140693 -0.518005,0 -0.984849,0.166273 -0.466843,0.159878 -0.86334,0.53719 -0.377312,0.364522 -0.613932,0.965663 -0.230224,0.601141 -0.230224,1.458087 0,0.895316 0.24941,1.496457 0.255804,0.601141 0.639511,0.946478 0.390103,0.351731 0.869736,0.505214 0.479634,0.147088 0.946478,0.147088 0.447658,0 0.882526,-0.134298 0.441263,-0.134297 0.81218,-0.364522 0.313361,-0.185458 0.581956,-0.396497 0.268595,-0.211039 0.441263,-0.364522 h 0.255804 v 2.276662 q -0.358126,0.159878 -0.684277,0.300571 -0.326151,0.140692 -0.684278,0.243014 -0.466843,0.134298 -0.876131,0.204644 -0.409287,0.07035 -1.12554,0.07035 z"
       style="font-weight:bold;-inkscape-font-specification:'sans-serif Bold';fill:#ffffff"
       id="path18" />
    <path
       d="m 98.807757,25.874627 q 0,1.771448 -1.036009,2.794666 -1.029614,1.016824 -2.896988,1.016824 -1.867375,0 -2.903384,-1.016824 -1.029614,-1.023218 -1.029614,-2.794666 0,-1.784238 1.036009,-2.801061 1.042405,-1.016824 2.896989,-1.016824 1.880164,0 2.903383,1.023219 1.029614,1.023219 1.029614,2.794666 z m -2.833037,1.745867 q 0.223829,-0.27499 0.332546,-0.658697 0.115112,-0.390102 0.115112,-1.07438 0,-0.633116 -0.115112,-1.061589 -0.115112,-0.428473 -0.319756,-0.684278 -0.204644,-0.2622 -0.492424,-0.370917 -0.28778,-0.108717 -0.620326,-0.108717 -0.332547,0 -0.594746,0.08953 -0.255805,0.08953 -0.492424,0.358127 -0.211039,0.249409 -0.338942,0.684277 -0.121507,0.434868 -0.121507,1.093565 0,0.588351 0.108717,1.023219 0.108717,0.428473 0.319756,0.690673 0.204644,0.249409 0.486029,0.364521 0.28778,0.115113 0.652302,0.115113 0.313361,0 0.594746,-0.102322 0.28778,-0.108717 0.486029,-0.358127 z m 1.170306,-8.876423 v 0.127903 l -2.251081,2.385378 h -1.573199 l 1.579594,-2.513281 z"
       style="font-weight:bold;-inkscape-font-specification:'sans-serif Bold';fill:#ffffff"
       id="path20" />
    <path
       d="m 107.95277,25.772305 q 0,0.888921 -0.27499,1.617965 -0.26859,0.729043 -0.70985,1.202282 -0.46045,0.498819 -1.04241,0.754624 -0.58195,0.255804 -1.24705,0.255804 -0.61393,0 -1.0424,-0.134297 -0.42847,-0.127902 -0.87613,-0.364522 v 2.992915 h -2.30224 v -9.816505 h 2.30224 V 23.0288 q 0.53079,-0.422078 1.08077,-0.684278 0.55638,-0.2622 1.27903,-0.2622 1.34297,0 2.08481,0.984849 0.74822,0.984848 0.74822,2.705134 z m -2.37258,0.04477 q 0,-1.048799 -0.35813,-1.522038 -0.35813,-0.473239 -1.13194,-0.473239 -0.32615,0 -0.67148,0.102322 -0.34534,0.09593 -0.6587,0.281385 v 3.613242 q 0.23022,0.08953 0.49242,0.115112 0.2622,0.02558 0.51801,0.02558 0.9145,0 1.36216,-0.530794 0.44766,-0.53719 0.44766,-1.61157 z"
       style="font-weight:bold;-inkscape-font-specification:'sans-serif Bold';fill:#ffffff"
       id="path22" />
    <path
       d="m 111.91775,29.462288 h -2.30224 v -7.181717 h 2.30224 z m 0.064,-8.204936 h -2.43015 v -1.745867 h 2.43015 z"
       style="font-weight:bold;-inkscape-font-specification:'sans-serif Bold';fill:#ffffff"
       id="path24" />
    <path
       d="m 118.44077,27.588519 v -1.496458 q -0.46685,0.03837 -1.01043,0.108717 -0.54359,0.06395 -0.82497,0.153483 -0.34534,0.108717 -0.5308,0.319756 -0.17906,0.204643 -0.17906,0.543585 0,0.223829 0.0384,0.364521 0.0384,0.140693 0.19185,0.268595 0.14709,0.127903 0.35174,0.191854 0.20464,0.05756 0.63951,0.05756 0.34533,0 0.69707,-0.140693 0.35812,-0.140692 0.62672,-0.370916 z m 0,1.11275 q -0.18546,0.140693 -0.46045,0.338941 -0.27499,0.198249 -0.51801,0.313361 -0.33894,0.153483 -0.70346,0.223829 -0.36452,0.07674 -0.79939,0.07674 -1.02322,0 -1.71389,-0.633116 -0.69067,-0.633117 -0.69067,-1.617965 0,-0.786599 0.35173,-1.285418 0.35173,-0.49882 0.99764,-0.7866 0.63951,-0.28778 1.58599,-0.409287 0.94647,-0.121508 1.9633,-0.179064 v -0.03837 q 0,-0.594746 -0.48603,-0.818575 -0.48603,-0.230225 -1.43251,-0.230225 -0.56916,0 -1.21507,0.204644 -0.64591,0.198249 -0.92729,0.306966 h -0.21104 v -1.733077 q 0.36452,-0.09593 1.1831,-0.223829 0.82497,-0.134298 1.64994,-0.134298 1.9633,0 2.83303,0.607536 0.87613,0.601142 0.87613,1.892955 v 4.88587 h -2.28305 z"
       style="font-weight:bold;-inkscape-font-specification:'sans-serif Bold';fill:#ffffff"
       id="path26" />
    <path
       d="m 129.08224,27.185626 q 0,1.112751 -0.99764,1.797028 -0.99764,0.677883 -2.73071,0.677883 -0.95927,0 -1.73947,-0.179064 -0.78021,-0.179063 -1.25345,-0.396497 v -1.892955 h 0.21104 q 0.17267,0.121507 0.3965,0.268595 0.23022,0.140693 0.64591,0.306966 0.35812,0.147087 0.81218,0.255804 0.45405,0.102322 0.97205,0.102322 0.67789,0 1.00404,-0.147087 0.32615,-0.153483 0.32615,-0.447659 0,-0.262199 -0.19186,-0.377311 -0.19185,-0.121508 -0.72904,-0.230225 -0.2558,-0.05756 -0.69707,-0.121507 -0.43486,-0.07035 -0.79299,-0.166273 -0.97845,-0.255805 -1.45169,-0.792995 -0.47324,-0.543585 -0.47324,-1.349369 0,-1.036009 0.97845,-1.720287 0.98485,-0.690673 2.68595,-0.690673 0.80579,0 1.54122,0.166273 0.74184,0.159878 1.15752,0.345337 v 1.816213 h -0.19825 q -0.51161,-0.351731 -1.1703,-0.569165 -0.65231,-0.223829 -1.32379,-0.223829 -0.55638,0 -0.94009,0.153482 -0.37731,0.153483 -0.37731,0.434868 0,0.255805 0.17267,0.390103 0.17267,0.134297 0.81218,0.268595 0.35173,0.07035 0.75462,0.140692 0.40929,0.06395 0.81858,0.166273 0.90811,0.236619 1.34297,0.748229 0.43487,0.505214 0.43487,1.266233 z"
       style="font-weight:bold;-inkscape-font-specification:'sans-serif Bold';fill:#ffffff"
       id="path28" />
    <path
       d="m 145.52409,29.462288 h -3.04408 l -0.88892,-0.805785 q -0.63951,0.505214 -1.41332,0.754624 -0.76741,0.24941 -1.62436,0.24941 -1.76505,0 -2.77548,-0.81218 -1.00403,-0.818575 -1.00403,-2.129574 0,-0.543585 0.15987,-0.946478 0.15988,-0.402892 0.42208,-0.722648 0.24941,-0.313361 0.57556,-0.53719 0.32615,-0.223829 0.62033,-0.383707 -0.2686,-0.198249 -0.51161,-0.415683 -0.24301,-0.217434 -0.42208,-0.473238 -0.17267,-0.243015 -0.26859,-0.543585 -0.0959,-0.300571 -0.0959,-0.677883 0,-0.447658 0.19185,-0.83776 0.19186,-0.396497 0.57556,-0.709858 0.3965,-0.326151 1.06159,-0.5244 0.67149,-0.204644 1.59239,-0.204644 0.77381,0 1.38134,0.153483 0.60754,0.153483 1.02322,0.434868 0.3901,0.268595 0.59475,0.652302 0.21104,0.377312 0.21104,0.818575 0,0.294176 -0.0895,0.645907 -0.0831,0.351732 -0.31336,0.665092 -0.24941,0.332546 -0.6587,0.620327 -0.40929,0.28778 -1.11915,0.511609 l 1.95691,1.720287 v -2.059228 h 2.38538 v 0.709858 q 0,0.754624 -0.25581,1.445296 -0.2558,0.690673 -0.70346,1.144726 l 2.43654,2.129575 z m -6.0242,-7.379966 q 0,-0.332546 -0.10232,-0.524399 -0.10233,-0.198249 -0.24941,-0.300571 -0.15349,-0.102322 -0.31976,-0.127902 -0.16627,-0.02558 -0.26859,-0.02558 -0.10872,0 -0.24941,0.02558 -0.1343,0.02558 -0.30057,0.134297 -0.1343,0.08953 -0.23662,0.268595 -0.10232,0.172669 -0.10232,0.460449 0,0.377312 0.30696,0.729043 0.30697,0.351732 0.79939,0.722648 0.35813,-0.281385 0.53719,-0.620326 0.18546,-0.345336 0.18546,-0.741834 z m 0.96566,5.493406 -2.73071,-2.423749 q -0.12791,0.127902 -0.29418,0.460448 -0.16627,0.326151 -0.16627,0.729044 0,0.428472 0.16627,0.741833 0.16627,0.306966 0.40929,0.505215 0.2558,0.204643 0.56916,0.306965 0.31336,0.102322 0.61394,0.102322 0.43486,0 0.76741,-0.08314 0.33894,-0.08953 0.66509,-0.338941 z"
       style="font-weight:bold;-inkscape-font-specification:'sans-serif Bold';fill:#ffffff"
       id="path30" />
    <path
       d="m 156.13359,29.462288 h -5.57654 v -1.688311 h 1.5604 v -6.145708 h -1.5604 v -1.688311 h 5.57654 v 1.688311 h -1.56041 v 6.145708 h 1.56041 z"
       style="font-weight:bold;-inkscape-font-specification:'sans-serif Bold';fill:#ffffff"
       id="path32" />
    <path
       d="m 165.0292,24.371774 v 5.090514 h -2.31503 v -3.587661 q 0,-0.5244 -0.0256,-0.888921 -0.0256,-0.370917 -0.14069,-0.601141 -0.11511,-0.230225 -0.35173,-0.332546 -0.23022,-0.108717 -0.6523,-0.108717 -0.33894,0 -0.6587,0.140692 -0.31975,0.134298 -0.57556,0.28778 v 5.090514 h -2.30224 v -7.181717 h 2.30224 v 0.792995 q 0.59475,-0.466844 1.13833,-0.729044 0.54359,-0.2622 1.20228,-0.2622 0.70986,0 1.25345,0.319756 0.54358,0.313361 0.85055,0.927292 0.69067,-0.581955 1.34297,-0.914501 0.6523,-0.332547 1.27903,-0.332547 1.16391,0 1.76505,0.697068 0.60753,0.697068 0.60753,2.008067 v 4.674831 h -2.31503 v -3.587661 q 0,-0.530795 -0.0256,-0.895316 -0.0192,-0.364522 -0.1343,-0.594746 -0.10871,-0.230225 -0.34533,-0.332546 -0.23662,-0.108717 -0.66509,-0.108717 -0.28778,0 -0.56277,0.102321 -0.27499,0.09593 -0.67149,0.326151 z"
       style="font-weight:bold;-inkscape-font-specification:'sans-serif Bold';fill:#ffffff"
       id="path34" />
    <path
       d="m 179.36066,25.772305 q 0,0.888921 -0.27499,1.617965 -0.2686,0.729043 -0.70986,1.202282 -0.46045,0.498819 -1.0424,0.754624 -0.58196,0.255804 -1.24705,0.255804 -0.61393,0 -1.0424,-0.134297 -0.42848,-0.127902 -0.87614,-0.364522 v 2.992915 h -2.30224 v -9.816505 h 2.30224 V 23.0288 q 0.5308,-0.422078 1.08078,-0.684278 0.55637,-0.2622 1.27902,-0.2622 1.34298,0 2.08481,0.984849 0.74823,0.984848 0.74823,2.705134 z m -2.37259,0.04477 q 0,-1.048799 -0.35813,-1.522038 -0.35812,-0.473239 -1.13193,-0.473239 -0.32615,0 -0.67149,0.102322 -0.34534,0.09593 -0.6587,0.281385 v 3.613242 q 0.23023,0.08953 0.49243,0.115112 0.2622,0.02558 0.518,0.02558 0.9145,0 1.36216,-0.530794 0.44766,-0.53719 0.44766,-1.61157 z"
       style="font-weight:bold;-inkscape-font-specification:'sans-serif Bold';fill:#ffffff"
       id="path36" />
    <path
       d="m 186.22901,24.474096 h -0.20464 q -0.14709,-0.05116 -0.47324,-0.07674 -0.32615,-0.02558 -0.54358,-0.02558 -0.49243,0 -0.86974,0.06395 -0.37731,0.06395 -0.81218,0.217434 v 4.809128 h -2.30224 v -7.181717 h 2.30224 v 1.055194 q 0.76102,-0.652302 1.32379,-0.86334 0.56277,-0.217434 1.03601,-0.217434 0.12151,0 0.27499,0.0064 0.15348,0.0064 0.26859,0.01918 z"
       style="font-weight:bold;-inkscape-font-specification:'sans-serif Bold';fill:#ffffff"
       id="path38" />
    <path
       d="m 194.60662,26.296705 h -5.26958 q 0.0512,0.844155 0.63951,1.291814 0.59475,0.447658 1.74587,0.447658 0.72904,0 1.41332,-0.2622 0.68428,-0.2622 1.08078,-0.56277 h 0.2558 v 1.848189 q -0.7802,0.31336 -1.47088,0.454053 -0.69067,0.140692 -1.52843,0.140692 -2.16155,0 -3.31267,-0.972057 -1.15112,-0.972058 -1.15112,-2.769086 0,-1.777843 1.08717,-2.813852 1.09356,-1.042404 2.99291,-1.042404 1.75227,0 2.63479,0.888921 0.88253,0.882526 0.88253,2.545257 z m -2.28945,-1.34937 q -0.0192,-0.722648 -0.35813,-1.08717 -0.33894,-0.364522 -1.05519,-0.364522 -0.6651,0 -1.09357,0.345337 -0.42847,0.345336 -0.47963,1.106355 z"
       style="font-weight:bold;-inkscape-font-specification:'sans-serif Bold';fill:#ffffff"
       id="path40" />
    <path
       d="m 202.47261,27.185626 q 0,1.112751 -0.99764,1.797028 -0.99764,0.677883 -2.73071,0.677883 -0.95927,0 -1.73947,-0.179064 -0.78021,-0.179063 -1.25345,-0.396497 v -1.892955 h 0.21104 q 0.17267,0.121507 0.3965,0.268595 0.23022,0.140693 0.64591,0.306966 0.35812,0.147087 0.81218,0.255804 0.45405,0.102322 0.97205,0.102322 0.67789,0 1.00404,-0.147087 0.32615,-0.153483 0.32615,-0.447659 0,-0.262199 -0.19186,-0.377311 -0.19185,-0.121508 -0.72904,-0.230225 -0.2558,-0.05756 -0.69707,-0.121507 -0.43486,-0.07035 -0.79299,-0.166273 -0.97845,-0.255805 -1.45169,-0.792995 -0.47324,-0.543585 -0.47324,-1.349369 0,-1.036009 0.97845,-1.720287 0.98485,-0.690673 2.68595,-0.690673 0.80579,0 1.54122,0.166273 0.74184,0.159878 1.15752,0.345337 v 1.816213 h -0.19825 q -0.51161,-0.351731 -1.17031,-0.569165 -0.6523,-0.223829 -1.32378,-0.223829 -0.55638,0 -0.94009,0.153482 -0.37731,0.153483 -0.37731,0.434868 0,0.255805 0.17267,0.390103 0.17267,0.134297 0.81218,0.268595 0.35173,0.07035 0.75462,0.140692 0.40929,0.06395 0.81858,0.166273 0.90811,0.236619 1.34297,0.748229 0.43487,0.505214 0.43487,1.266233 z"
       style="font-weight:bold;-inkscape-font-specification:'sans-serif Bold';fill:#ffffff"
       id="path42" />
    <path
       d="m 210.24268,27.185626 q 0,1.112751 -0.99764,1.797028 -0.99764,0.677883 -2.73072,0.677883 -0.95926,0 -1.73947,-0.179064 -0.7802,-0.179063 -1.25344,-0.396497 v -1.892955 h 0.21104 q 0.17266,0.121507 0.39649,0.268595 0.23023,0.140693 0.64591,0.306966 0.35813,0.147087 0.81218,0.255804 0.45405,0.102322 0.97206,0.102322 0.67788,0 1.00403,-0.147087 0.32615,-0.153483 0.32615,-0.447659 0,-0.262199 -0.19185,-0.377311 -0.19185,-0.121508 -0.72904,-0.230225 -0.25581,-0.05756 -0.69707,-0.121507 -0.43487,-0.07035 -0.793,-0.166273 -0.97845,-0.255805 -1.45169,-0.792995 -0.47324,-0.543585 -0.47324,-1.349369 0,-1.036009 0.97846,-1.720287 0.98484,-0.690673 2.68595,-0.690673 0.80578,0 1.54122,0.166273 0.74183,0.159878 1.15752,0.345337 v 1.816213 h -0.19825 q -0.51161,-0.351731 -1.17031,-0.569165 -0.6523,-0.223829 -1.32379,-0.223829 -0.55637,0 -0.94008,0.153482 -0.37731,0.153483 -0.37731,0.434868 0,0.255805 0.17266,0.390103 0.17267,0.134297 0.81218,0.268595 0.35174,0.07035 0.75463,0.140692 0.40929,0.06395 0.81857,0.166273 0.90811,0.236619 1.34298,0.748229 0.43487,0.505214 0.43487,1.266233 z"
       style="font-weight:bold;-inkscape-font-specification:'sans-serif Bold';fill:#ffffff"
       id="path44" />
    <path
       d="m 216.11979,27.588519 v -1.496458 q -0.46684,0.03837 -1.01042,0.108717 -0.54359,0.06395 -0.82497,0.153483 -0.34534,0.108717 -0.5308,0.319756 -0.17906,0.204643 -0.17906,0.543585 0,0.223829 0.0384,0.364521 0.0384,0.140693 0.19185,0.268595 0.14709,0.127903 0.35173,0.191854 0.20465,0.05756 0.63952,0.05756 0.34533,0 0.69706,-0.140693 0.35813,-0.140692 0.62672,-0.370916 z m 0,1.11275 q -0.18545,0.140693 -0.46044,0.338941 -0.27499,0.198249 -0.51801,0.313361 -0.33894,0.153483 -0.70346,0.223829 -0.36452,0.07674 -0.79939,0.07674 -1.02322,0 -1.71389,-0.633116 -0.69068,-0.633117 -0.69068,-1.617965 0,-0.786599 0.35174,-1.285418 0.35173,-0.49882 0.99763,-0.7866 0.63952,-0.28778 1.58599,-0.409287 0.94648,-0.121508 1.9633,-0.179064 v -0.03837 q 0,-0.594746 -0.48602,-0.818575 -0.48603,-0.230225 -1.43251,-0.230225 -0.56917,0 -1.21507,0.204644 -0.64591,0.198249 -0.92729,0.306966 h -0.21104 v -1.733077 q 0.36452,-0.09593 1.18309,-0.223829 0.82497,-0.134298 1.64994,-0.134298 1.9633,0 2.83304,0.607536 0.87613,0.601142 0.87613,1.892955 v 4.88587 h -2.28306 z m 1.70111,-9.586281 q -0.064,1.080775 -0.5308,1.605174 -0.46045,0.518005 -1.29181,0.518005 -0.30057,0 -0.57556,-0.115112 -0.2686,-0.121507 -0.49243,-0.255805 -0.19825,-0.121507 -0.44126,-0.243014 -0.23662,-0.127903 -0.3965,-0.127903 -0.31336,0 -0.42208,0.204644 -0.10232,0.204644 -0.1215,0.575561 h -1.40053 q 0.0384,-0.965663 0.53079,-1.541224 0.49882,-0.57556 1.28542,-0.57556 0.30697,0 0.58196,0.115112 0.27499,0.108717 0.50521,0.243014 0.23662,0.127903 0.44126,0.243015 0.20465,0.108717 0.37731,0.108717 0.30697,0 0.42208,-0.204644 0.11511,-0.204644 0.1279,-0.54998 z"
       style="font-weight:bold;-inkscape-font-specification:'sans-serif Bold';fill:#ffffff"
       id="path46" />
    <path
       d="m 227.86123,25.874627 q 0,1.771448 -1.03601,2.794666 -1.02961,1.016824 -2.89699,1.016824 -1.86737,0 -2.90338,-1.016824 -1.02962,-1.023218 -1.02962,-2.794666 0,-1.784238 1.03601,-2.801061 1.04241,-1.016824 2.89699,-1.016824 1.88017,0 2.90339,1.023219 1.02961,1.023219 1.02961,2.794666 z m -2.83304,1.745867 q 0.22383,-0.27499 0.33255,-0.658697 0.11511,-0.390102 0.11511,-1.07438 0,-0.633116 -0.11511,-1.061589 -0.11511,-0.428473 -0.31976,-0.684278 -0.20464,-0.2622 -0.49242,-0.370917 -0.28778,-0.108717 -0.62033,-0.108717 -0.33254,0 -0.59474,0.08953 -0.25581,0.08953 -0.49243,0.358127 -0.21104,0.249409 -0.33894,0.684277 -0.12151,0.434868 -0.12151,1.093565 0,0.588351 0.10872,1.023219 0.10872,0.428473 0.31976,0.690673 0.20464,0.249409 0.48603,0.364521 0.28778,0.115113 0.6523,0.115113 0.31336,0 0.59474,-0.102322 0.28778,-0.108717 0.48603,-0.358127 z"
       style="font-weight:bold;-inkscape-font-specification:'sans-serif Bold';fill:#ffffff"
       id="path48" />
  </g>
</svg>
